<svg width="111" height="111" viewBox="0 0 111 111" fill="none" xmlns="http://www.w3.org/2000/svg">
<g clip-path="url(#clip0_746_1663)">
<path d="M66.5583 5.4597L20.375 17.8345C9.1222 20.8497 2.44429 32.4161 5.45946 43.6689L17.8342 89.8523C20.8494 101.105 32.4159 107.783 43.6687 104.768L89.852 92.393C101.105 89.3778 107.783 77.8114 104.768 66.5586L92.3928 20.3752C89.3776 9.12243 77.8111 2.44452 66.5583 5.4597Z" fill="#040404"></path>
<mask id="mask0_746_1663" style="mask-type:luminance" maskUnits="userSpaceOnUse" x="23" y="15" width="64" height="81">
<path d="M23.2617 27.252L68.5485 15.1174L86.7468 83.034L41.4599 95.1686L23.2617 27.252Z" fill="white"></path>
</mask>
<g mask="url(#mask0_746_1663)">
<path d="M52.7842 92.1342C59.0325 90.46 62.7448 84.0302 61.0705 77.7819L58.0374 66.4622L46.7181 69.4952C40.4698 71.1695 36.7573 77.5997 38.4315 83.848C40.1058 90.0963 46.5359 93.8085 52.7842 92.1342Z" fill="#0ACF83"></path>
<path d="M32.365 61.209C30.6908 54.9606 34.4034 48.5308 40.6517 46.8566L51.971 43.8235L58.037 66.4622L46.7177 69.4952C40.4694 71.1694 34.0393 67.4573 32.365 61.209Z" fill="#A259FF"></path>
<path d="M26.2986 38.5693C24.6244 32.321 28.337 25.8911 34.5853 24.2169L45.9046 21.1839L51.9707 43.8229L40.6514 46.8559C34.4031 48.5301 27.9729 44.8177 26.2986 38.5693Z" fill="#F24E1E"></path>
<path d="M45.9062 21.1846L57.2256 18.1516C63.4739 16.4773 69.904 20.1895 71.5783 26.4378C73.2525 32.6861 69.54 39.1163 63.2917 40.7906L51.9724 43.8236L45.9062 21.1846Z" fill="#FF7262"></path>
<path d="M77.6427 49.0765C79.3169 55.3248 75.6044 61.7547 69.356 63.4289C63.1077 65.1031 56.6779 61.3909 55.0037 55.1426C53.3295 48.8942 57.0417 42.4645 63.29 40.7902C69.5384 39.116 75.9685 42.8281 77.6427 49.0765Z" fill="#1ABCFE"></path>
</g>
</g>
<defs>
<clipPath id="clip0_746_1663">
<rect width="90" height="90" fill="white" transform="translate(0 23.2939) rotate(-15)"></rect>
</clipPath>
</defs>
</svg>