<svg width="300" height="241" viewBox="0 0 300 241" fill="none" xmlns="http://www.w3.org/2000/svg">
<path d="M192.734 39.0895C201.244 41.3701 206.294 50.1176 204.014 58.628L202.811 63.1171L278.829 83.486C287.34 85.7664 292.391 94.515 290.11 103.026L285.945 118.569L33.2237 50.8526L44.3721 9.2461C45.7404 4.13972 50.9893 1.10923 56.0957 2.47748L192.734 39.0895Z" fill="#2D94DF"></path>
<g filter="url(#filter0_d_746_1653)">
<rect x="40.0371" y="25.4268" width="261.637" height="147.57" rx="15.9535" transform="rotate(15 40.0371 25.4268)" fill="#C0EAFF" shape-rendering="crispEdges"></rect>
<path d="M53.1383 113.608L56.7514 100.123L59.3208 100.812L60.414 105.618L61.115 108.643L61.173 108.658L63.2924 106.39L66.6425 102.774L69.1732 103.452L65.5601 116.936L63.4737 116.377L65.6426 108.282L66.2275 106.099L66.1503 106.079L64.499 107.914L60.0746 112.526L58.5824 106.349L58.0713 103.852L57.9941 103.831L57.3936 106.072L55.2247 114.167L53.1383 113.608ZM73.9979 114.766L77.591 109.393L79.6194 109.936L72.1638 120.838C71.8884 121.247 71.6051 121.558 71.3137 121.77C71.0317 121.998 70.7077 122.125 70.3418 122.151C69.9853 122.194 69.5431 122.144 69.015 122.003L67.798 121.677L68.2587 119.957L69.9587 120.413L70.9938 118.868L70.1533 107.4L72.2591 107.964L72.6842 114.414L72.6788 116.752L72.7754 116.778L73.9979 114.766ZM83.3801 121.711L86.9932 108.226L91.7649 109.505C92.9111 109.812 93.8419 110.331 94.5574 111.061C95.2891 111.781 95.7522 112.706 95.9467 113.835C96.1575 114.954 96.061 116.267 95.6573 117.774C95.2535 119.281 94.6788 120.473 93.9331 121.35C93.2037 122.217 92.3403 122.787 91.3428 123.058C90.3617 123.319 89.298 123.296 88.1518 122.989L83.3801 121.711ZM86.0807 120.364L88.6694 121.058C89.3391 121.237 89.9631 121.252 90.5413 121.104C91.1323 120.958 91.6373 120.645 92.0562 120.164C92.4879 119.686 92.8124 119.041 93.0299 118.23L93.6096 116.066C93.827 115.255 93.8682 114.534 93.7333 113.904C93.6112 113.278 93.3306 112.754 92.8913 112.333C92.465 111.915 91.9169 111.616 91.2472 111.437L88.6585 110.743L86.0807 120.364ZM100.292 126.491C99.339 126.235 98.5716 125.802 97.99 125.191C97.4119 124.566 97.0349 123.81 96.859 122.921C96.6961 122.035 96.7578 121.058 97.0442 119.989C97.3306 118.92 97.7641 118.049 98.3447 117.376C98.9287 116.691 99.6206 116.22 100.421 115.965C101.22 115.71 102.097 115.711 103.05 115.966C104.042 116.232 104.806 116.678 105.342 117.305C105.894 117.922 106.236 118.656 106.367 119.505C106.498 120.355 106.44 121.243 106.191 122.17L105.979 122.962L99.1016 121.12L99.0136 121.448C98.8065 122.221 98.8611 122.919 99.1773 123.542C99.5098 124.155 100.101 124.576 100.951 124.804C101.569 124.97 102.127 124.974 102.625 124.817C103.122 124.661 103.575 124.389 103.982 124.001L104.912 125.555C104.363 126.056 103.685 126.399 102.876 126.583C102.081 126.77 101.219 126.739 100.292 126.491ZM102.649 117.618C102.159 117.487 101.697 117.488 101.261 117.619C100.842 117.742 100.476 117.975 100.163 118.319C99.8659 118.653 99.6486 119.078 99.5105 119.594L99.4743 119.729L104.149 120.981L104.201 120.788C104.339 120.273 104.37 119.798 104.293 119.363C104.216 118.929 104.038 118.564 103.758 118.268C103.482 117.959 103.112 117.743 102.649 117.618ZM110.235 129.155C109.295 128.903 108.541 128.522 107.974 128.011C107.42 127.503 106.984 126.89 106.666 126.17L108.35 125.296C108.606 125.834 108.925 126.292 109.307 126.67C109.701 127.052 110.201 127.324 110.806 127.486C111.425 127.652 111.913 127.658 112.271 127.506C112.646 127.344 112.89 127.051 113.004 126.626C113.09 126.304 113.053 126.004 112.893 125.726C112.746 125.452 112.418 125.206 111.911 124.987L111.015 124.622C110.373 124.34 109.831 124.015 109.391 123.649C108.951 123.283 108.649 122.864 108.486 122.392C108.339 121.911 108.348 121.361 108.514 120.743C108.776 119.764 109.321 119.096 110.148 118.738C110.989 118.383 111.963 118.354 113.07 118.651C113.676 118.813 114.186 119.019 114.603 119.269C115.019 119.518 115.368 119.812 115.65 120.15C115.936 120.475 116.182 120.844 116.388 121.259L114.763 122.148C114.588 121.77 114.317 121.415 113.951 121.082C113.601 120.739 113.156 120.496 112.615 120.351C112.048 120.199 111.592 120.201 111.247 120.357C110.905 120.5 110.682 120.765 110.578 121.151C110.475 121.538 110.519 121.86 110.712 122.119C110.918 122.381 111.273 122.628 111.777 122.86L112.673 123.224C113.736 123.688 114.453 124.232 114.824 124.856C115.211 125.471 115.296 126.184 115.079 126.995C114.907 127.639 114.587 128.161 114.121 128.561C113.672 128.951 113.114 129.202 112.449 129.314C111.785 129.425 111.046 129.372 110.235 129.155ZM120.891 119.069C120.453 118.952 120.159 118.763 120.008 118.501C119.87 118.244 119.844 117.954 119.931 117.632L120.019 117.303C120.105 116.981 120.272 116.743 120.521 116.589C120.782 116.438 121.131 116.421 121.569 116.539C122.007 116.656 122.295 116.844 122.433 117.101C122.571 117.359 122.597 117.649 122.511 117.971L122.423 118.3C122.336 118.622 122.169 118.86 121.921 119.014C121.672 119.168 121.329 119.187 120.891 119.069ZM116.656 130.627L119.347 120.581L121.453 121.146L118.761 131.191L116.656 130.627ZM130.343 135.309C130.157 136.005 129.821 136.536 129.336 136.903C128.861 137.286 128.219 137.494 127.41 137.525C126.6 137.557 125.591 137.411 124.38 137.086C123.298 136.796 122.442 136.463 121.811 136.087C121.193 135.715 120.778 135.307 120.565 134.863C120.366 134.423 120.333 133.952 120.468 133.45C120.616 132.896 120.882 132.498 121.264 132.255C121.656 132.029 122.136 131.937 122.705 131.979L122.762 131.766C122.419 131.55 122.188 131.281 122.067 130.959C121.946 130.637 121.936 130.289 122.036 129.915C122.174 129.4 122.453 129.054 122.873 128.877C123.31 128.69 123.789 128.604 124.309 128.619L124.33 128.542C123.8 128.097 123.444 127.573 123.26 126.972C123.089 126.374 123.093 125.74 123.272 125.07C123.455 124.388 123.77 123.83 124.217 123.398C124.677 122.969 125.242 122.692 125.91 122.568C126.595 122.433 127.355 122.479 128.193 122.703C128.54 122.796 128.855 122.908 129.138 123.039C129.433 123.173 129.702 123.328 129.945 123.504L130.017 123.233C130.138 122.783 130.341 122.464 130.625 122.278C130.91 122.092 131.271 122.058 131.709 122.175L133.235 122.584L132.785 124.265L130.756 123.721L130.648 124.127C131.016 124.557 131.253 125.035 131.361 125.56C131.481 126.09 131.464 126.644 131.309 127.223C131.129 127.893 130.81 128.443 130.35 128.871C129.902 129.304 129.338 129.58 128.657 129.702C127.989 129.826 127.229 129.775 126.379 129.547C126.135 129.481 125.9 129.405 125.675 129.317C125.463 129.232 125.274 129.14 125.107 129.04C124.838 129.065 124.585 129.135 124.347 129.251C124.112 129.353 123.96 129.534 123.891 129.791C123.819 130.062 123.883 130.286 124.084 130.464C124.298 130.645 124.63 130.797 125.08 130.917L127.553 131.58C128.79 131.911 129.619 132.396 130.042 133.034C130.477 133.675 130.578 134.433 130.343 135.309ZM128.311 135.013C128.407 134.652 128.341 134.331 128.113 134.049C127.895 133.783 127.444 133.559 126.761 133.376L123.361 132.465C123.095 132.532 122.878 132.646 122.71 132.808C122.552 132.987 122.44 133.198 122.375 133.443C122.268 133.842 122.341 134.214 122.594 134.558C122.847 134.902 123.366 135.179 124.151 135.389L125.465 135.741C126.289 135.962 126.939 136.012 127.413 135.89C127.887 135.769 128.186 135.477 128.311 135.013ZM126.783 128.04C127.401 128.206 127.916 128.192 128.327 127.998C128.75 127.808 129.038 127.429 129.19 126.863L129.299 126.457C129.45 125.89 129.39 125.419 129.119 125.042C128.86 124.669 128.421 124.4 127.803 124.234C127.185 124.069 126.664 124.081 126.24 124.271C125.829 124.465 125.548 124.845 125.396 125.411L125.288 125.817C125.136 126.384 125.189 126.854 125.448 127.227C125.72 127.603 126.165 127.874 126.783 128.04ZM134.269 135.346L132.163 134.782L134.855 124.737L136.961 125.301L136.516 126.962L136.612 126.988C136.976 126.506 137.425 126.143 137.96 125.9C138.507 125.66 139.167 125.644 139.94 125.851C140.97 126.127 141.677 126.682 142.061 127.516C142.458 128.354 142.49 129.391 142.159 130.628L140.451 137.003L138.345 136.439L139.986 130.315C140.197 129.529 140.199 128.902 139.994 128.432C139.804 127.954 139.381 127.627 138.724 127.451C138.351 127.35 137.979 127.32 137.61 127.359C137.257 127.389 136.937 127.503 136.649 127.702C136.374 127.904 136.184 128.199 136.081 128.585L134.269 135.346ZM156.744 141.369L157.293 139.321L157.216 139.3C156.914 139.91 156.389 140.349 155.641 140.618C154.893 140.886 154.01 140.884 152.992 140.612C151.923 140.325 151.035 139.804 150.326 139.048C149.634 138.283 149.188 137.322 148.987 136.164C148.787 135.006 148.888 133.673 149.292 132.166C149.696 130.659 150.28 129.456 151.046 128.557C151.815 127.645 152.716 127.038 153.75 126.735C154.783 126.432 155.886 126.438 157.058 126.752C158.256 127.073 159.201 127.616 159.893 128.381C160.598 129.15 161.056 130.066 161.268 131.131L159.211 131.698C159.11 130.994 158.841 130.377 158.403 129.845C157.982 129.305 157.36 128.924 156.535 128.703C155.827 128.513 155.161 128.5 154.537 128.665C153.913 128.829 153.374 129.167 152.919 129.68C152.468 130.181 152.131 130.843 151.911 131.667L151.326 133.85C151.105 134.674 151.063 135.422 151.201 136.094C151.341 136.753 151.639 137.316 152.094 137.783C152.565 138.24 153.174 138.569 153.921 138.769C154.5 138.925 155.046 138.974 155.558 138.918C156.073 138.849 156.523 138.666 156.906 138.368C157.293 138.058 157.563 137.619 157.714 137.053L157.994 136.009L155.212 135.264L155.714 133.39L160.602 134.7L158.676 141.886L156.744 141.369ZM165.416 143.941C164.475 143.689 163.715 143.257 163.133 142.646C162.568 142.025 162.197 141.27 162.021 140.381C161.858 139.495 161.92 138.518 162.206 137.449C162.493 136.38 162.928 135.503 163.512 134.817C164.109 134.135 164.806 133.673 165.602 133.431C166.415 133.179 167.291 133.179 168.232 133.431C169.159 133.68 169.905 134.114 170.47 134.735C171.052 135.347 171.424 136.095 171.587 136.981C171.763 137.87 171.708 138.849 171.421 139.918C171.135 140.987 170.693 141.862 170.096 142.545C169.512 143.23 168.814 143.699 168.001 143.95C167.205 144.192 166.343 144.189 165.416 143.941ZM165.887 142.183C166.608 142.376 167.24 142.311 167.782 141.987C168.341 141.653 168.737 141.048 168.972 140.173L169.428 138.473C169.662 137.597 169.619 136.881 169.299 136.326C168.994 135.762 168.482 135.383 167.761 135.189C167.052 135 166.412 135.07 165.841 135.4C165.285 135.72 164.891 136.318 164.656 137.194L164.2 138.894C163.966 139.77 164.007 140.492 164.324 141.06C164.657 141.619 165.178 141.993 165.887 142.183ZM178.924 142.156L173.572 140.722L174.147 138.578L179.498 140.012L178.924 142.156ZM191.694 138.351L187.675 137.275L184.58 148.827L182.397 148.242L185.492 136.69L181.474 135.613L181.992 133.681L192.211 136.42L191.694 138.351ZM193.167 151.377C192.227 151.125 191.466 150.693 190.884 150.082C190.319 149.461 189.949 148.706 189.773 147.817C189.61 146.931 189.672 145.954 189.958 144.885C190.244 143.816 190.68 142.939 191.264 142.253C191.86 141.571 192.557 141.109 193.354 140.867C194.166 140.615 195.043 140.615 195.983 140.867C196.91 141.116 197.657 141.55 198.222 142.171C198.803 142.783 199.176 143.531 199.339 144.417C199.515 145.306 199.459 146.285 199.173 147.354C198.886 148.423 198.445 149.298 197.848 149.981C197.264 150.666 196.566 151.135 195.753 151.386C194.956 151.628 194.094 151.625 193.167 151.377ZM193.638 149.619C194.359 149.812 194.991 149.747 195.534 149.422C196.092 149.089 196.489 148.484 196.724 147.609L197.179 145.909C197.414 145.033 197.371 144.317 197.05 143.762C196.746 143.198 196.233 142.819 195.512 142.625C194.804 142.436 194.164 142.506 193.592 142.836C193.037 143.156 192.642 143.754 192.407 144.63L191.952 146.33C191.717 147.206 191.758 147.928 192.076 148.496C192.409 149.055 192.93 149.429 193.638 149.619ZM204.785 138.712C205.262 138.84 205.579 139.049 205.735 139.339C205.892 139.63 205.921 139.962 205.821 140.335L205.733 140.664C205.57 141.269 205.224 141.866 204.693 142.456C204.163 143.045 203.552 143.496 202.861 143.808L201.354 143.404C201.86 143.112 202.292 142.813 202.65 142.509C203.024 142.195 203.337 141.823 203.59 141.394C203.289 141.231 203.089 141.025 202.99 140.778C202.894 140.517 202.885 140.239 202.965 139.943L203.058 139.595C203.158 139.222 203.349 138.948 203.63 138.775C203.924 138.605 204.309 138.584 204.785 138.712ZM207.092 155.108C206.152 154.856 205.398 154.474 204.831 153.964C204.277 153.456 203.841 152.842 203.523 152.122L205.206 151.248C205.463 151.786 205.781 152.244 206.163 152.623C206.558 153.005 207.058 153.277 207.663 153.439C208.281 153.604 208.77 153.611 209.128 153.459C209.503 153.297 209.747 153.003 209.861 152.578C209.947 152.256 209.91 151.956 209.75 151.679C209.602 151.405 209.275 151.158 208.768 150.939L207.871 150.575C207.229 150.293 206.688 149.968 206.248 149.602C205.808 149.235 205.506 148.816 205.343 148.345C205.195 147.863 205.205 147.314 205.37 146.696C205.633 145.717 206.177 145.048 207.005 144.69C207.845 144.336 208.819 144.307 209.927 144.604C210.532 144.766 211.043 144.972 211.459 145.221C211.876 145.471 212.225 145.765 212.507 146.102C212.793 146.427 213.039 146.797 213.245 147.211L211.619 148.101C211.445 147.723 211.174 147.367 210.808 147.034C210.458 146.692 210.012 146.449 209.471 146.304C208.905 146.152 208.449 146.154 208.103 146.31C207.761 146.453 207.538 146.717 207.435 147.104C207.331 147.49 207.376 147.813 207.569 148.071C207.775 148.334 208.13 148.581 208.634 148.812L209.53 149.177C210.593 149.641 211.31 150.185 211.681 150.809C212.068 151.423 212.153 152.136 211.936 152.948C211.763 153.592 211.444 154.114 210.978 154.513C210.528 154.904 209.971 155.155 209.306 155.266C208.641 155.378 207.903 155.325 207.092 155.108Z" fill="#4B4B4B"></path>
<g clip-path="url(#clip0_746_1653)">
<path d="M223.788 155.386L223.014 158.276L225.904 159.05L236.711 152.804L234.596 149.14L223.788 155.386ZM238.669 160.29L234.517 162.687L231.584 157.607L233.313 156.609L233.877 157.586L236.292 156.185L237.093 157.572L235.675 158.365L236.285 159.354L237.668 158.569L238.669 160.29ZM227.895 151.185L224.945 146.109L229.097 143.711L230.088 145.439L227.672 146.839L228.278 147.877L230.685 146.474L231.486 147.861L230.101 148.655L230.665 149.632L227.895 151.185ZM239.55 151.145C239.931 150.925 240.057 150.455 239.841 150.059L238.513 147.803C238.308 147.427 237.808 147.292 237.427 147.512L235.631 148.543L237.746 152.206L239.55 151.145Z" fill="#4B4B4B"></path>
</g>
</g>
<defs>
<filter id="filter0_d_746_1653" x="-3.58043" y="23.1933" width="301.764" height="221.106" filterUnits="userSpaceOnUse" color-interpolation-filters="sRGB">
<feFlood flood-opacity="0" result="BackgroundImageFix"></feFlood>
<feColorMatrix in="SourceAlpha" type="matrix" values="0 0 0 0 0 0 0 0 0 0 0 0 0 0 0 0 0 0 127 0" result="hardAlpha"></feColorMatrix>
<feOffset dy="3.1907"></feOffset>
<feGaussianBlur stdDeviation="2.71209"></feGaussianBlur>
<feComposite in2="hardAlpha" operator="out"></feComposite>
<feColorMatrix type="matrix" values="0 0 0 0 0 0 0 0 0 0 0 0 0 0 0 0 0 0 0.25 0"></feColorMatrix>
<feBlend mode="normal" in2="BackgroundImageFix" result="effect1_dropShadow_746_1653"></feBlend>
<feBlend mode="normal" in="SourceGraphic" in2="effect1_dropShadow_746_1653" result="shape"></feBlend>
</filter>
<clipPath id="clip0_746_1653">
<rect width="19.1442" height="19.1442" fill="white" transform="translate(225.039 141.476) rotate(15)"></rect>
</clipPath>
</defs>
</svg>