<svg width="50" height="25" viewBox="0 0 50 25" fill="none" xmlns="http://www.w3.org/2000/svg">
<mask id="path-1-inside-1_974_1730" fill="white">
<path d="M12 13.5V24H0V0L12 13.5Z"></path>
</mask>
<path d="M12 13.5V24H0V0L12 13.5Z" fill="white"></path>
<path d="M12 13.5H13V13.1198L12.7474 12.8356L12 13.5ZM12 24V25H13V24H12ZM0 24H-1V25H0V24ZM0 0L0.747409 -0.664364L-1 -2.6302V0H0ZM12 13.5H11V24H12H13V13.5H12ZM12 24V23H0V24V25H12V24ZM0 24H1V0H0H-1V24H0ZM0 0L-0.747409 0.664364L11.2526 14.1644L12 13.5L12.7474 12.8356L0.747409 -0.664364L0 0Z" fill="#3F9FE5" mask="url(#path-1-inside-1_974_1730)"></path>
<mask id="path-3-inside-2_974_1730" fill="white">
<path d="M24 24L12 13.5V0H24V24Z"></path>
</mask>
<path d="M24 24L12 13.5V0H24V24Z" fill="white"></path>
<path d="M24 24L23.3415 24.7526L25 26.2038V24H24ZM12 13.5H11V13.9538L11.3415 14.2526L12 13.5ZM12 0V-1H11V0H12ZM24 0H25V-1H24V0ZM24 24L24.6585 23.2474L12.6585 12.7474L12 13.5L11.3415 14.2526L23.3415 24.7526L24 24ZM12 13.5H13V0H12H11V13.5H12ZM12 0V1H24V0V-1H12V0ZM24 0H23V24H24H25V0H24Z" fill="#3F9FE5" mask="url(#path-3-inside-2_974_1730)"></path>
<mask id="path-5-inside-3_974_1730" fill="white">
<path d="M38.9209 11.5244C41.2718 9.17371 45.0837 9.17359 47.4346 11.5244C49.7854 13.8753 49.7853 17.6871 47.4346 20.0381L43.0273 24.4453H26L38.9209 11.5244Z"></path>
</mask>
<path d="M38.9209 11.5244C41.2718 9.17371 45.0837 9.17359 47.4346 11.5244C49.7854 13.8753 49.7853 17.6871 47.4346 20.0381L43.0273 24.4453H26L38.9209 11.5244Z" fill="white"></path>
<path d="M38.9209 11.5244L38.2138 10.8173L38.2138 10.8173L38.9209 11.5244ZM47.4346 11.5244L48.1417 10.8173L48.1417 10.8173L47.4346 11.5244ZM47.4346 20.0381L48.1417 20.7452L48.1417 20.7452L47.4346 20.0381ZM43.0273 24.4453V25.4453H43.4416L43.7345 25.1524L43.0273 24.4453ZM26 24.4453L25.2929 23.7382L23.5858 25.4453H26V24.4453ZM38.9209 11.5244L39.628 12.2316C41.5884 10.2713 44.7672 10.2713 46.7275 12.2315L47.4346 11.5244L48.1417 10.8173C45.4003 8.07594 40.9552 8.07612 38.2138 10.8173L38.9209 11.5244ZM47.4346 11.5244L46.7275 12.2315C48.6878 14.1918 48.6877 17.3706 46.7274 19.331L47.4346 20.0381L48.1417 20.7452C50.8829 18.0037 50.8831 13.5587 48.1417 10.8173L47.4346 11.5244ZM47.4346 20.0381L46.7275 19.331L42.3202 23.7382L43.0273 24.4453L43.7345 25.1524L48.1417 20.7452L47.4346 20.0381ZM43.0273 24.4453V23.4453H26V24.4453V25.4453H43.0273V24.4453ZM26 24.4453L26.7071 25.1524L39.628 12.2315L38.9209 11.5244L38.2138 10.8173L25.2929 23.7382L26 24.4453Z" fill="#3F9FE5" mask="url(#path-5-inside-3_974_1730)"></path>
<mask id="path-7-inside-4_974_1730" fill="white">
<path d="M36.3682 12.9209C34.0173 15.2717 30.2054 15.2716 27.8545 12.9209C25.5036 10.57 25.5037 6.75816 27.8545 4.40723L32.2617 0H49.2881L36.3682 12.9209Z"></path>
</mask>
<path d="M36.3682 12.9209C34.0173 15.2717 30.2054 15.2716 27.8545 12.9209C25.5036 10.57 25.5037 6.75816 27.8545 4.40723L32.2617 0H49.2881L36.3682 12.9209Z" fill="white"></path>
<path d="M36.3682 12.9209L37.0753 13.628L37.0753 13.628L36.3682 12.9209ZM27.8545 12.9209L27.1474 13.628L27.1474 13.628L27.8545 12.9209ZM27.8545 4.40723L27.1474 3.70012L27.1474 3.70014L27.8545 4.40723ZM32.2617 0V-1H31.8475L31.5546 -0.707107L32.2617 0ZM49.2881 0L49.9952 0.70708L51.7022 -1H49.2881V0ZM36.3682 12.9209L35.6611 12.2138C33.7007 14.174 30.522 14.174 28.5616 12.2138L27.8545 12.9209L27.1474 13.628C29.8888 16.3693 34.3338 16.3693 37.0753 13.628L36.3682 12.9209ZM27.8545 12.9209L28.5616 12.2138C26.6012 10.2534 26.6013 7.07474 28.5616 5.11432L27.8545 4.40723L27.1474 3.70014C24.4061 6.44157 24.406 10.8866 27.1474 13.628L27.8545 12.9209ZM27.8545 4.40723L28.5616 5.11433L32.9688 0.707107L32.2617 0L31.5546 -0.707107L27.1474 3.70012L27.8545 4.40723ZM32.2617 0V1H49.2881V0V-1H32.2617V0ZM49.2881 0L48.581 -0.70708L35.661 12.2138L36.3682 12.9209L37.0753 13.628L49.9952 0.70708L49.2881 0Z" fill="#3F9FE5" mask="url(#path-7-inside-4_974_1730)"></path>
</svg>