<svg width="123" height="123" viewBox="0 0 123 123" fill="none" xmlns="http://www.w3.org/2000/svg">
<g clip-path="url(#clip0_746_1689)">
<path d="M33.75 19.4856C39.9632 8.72406 53.7241 5.03684 64.4856 11.25L103.457 33.75C114.218 39.9632 117.905 53.7241 111.692 64.4856L89.1923 103.457C82.9791 114.218 69.2182 117.905 58.4567 111.692L19.4856 89.1923C8.72406 82.9791 5.03684 69.2182 11.25 58.4567L33.75 19.4856Z" fill="#FFDD33"></path>
<path d="M88.2403 44.7745L81.1649 40.6895L81.0799 54.4533L74.0895 36.6046L67.0141 32.5196L66.1896 48.9262L59.9387 28.4346L52.8633 24.3496L50.6333 44.5519L24.9492 72.6982L32.0246 76.7832L65.5241 50.0789L39.1 80.8681L46.1754 84.9531L80.4144 55.606L53.2508 89.0381L60.3262 93.1231L96.5602 60.3207L88.2403 44.7745Z" fill="black"></path>
</g>
<defs>
<clipPath id="clip0_746_1689">
<rect width="90" height="90" fill="white" transform="translate(45) rotate(30)"></rect>
</clipPath>
</defs>
</svg>