<svg width="415" height="458" viewBox="0 0 415 458" fill="none" xmlns="http://www.w3.org/2000/svg" xmlns:xlink="http://www.w3.org/1999/xlink">
<g filter="url(#filter0_d_746_1661)">
<rect width="367" height="410" transform="translate(22.9004 19.9004)" fill="#F7F7F7"></rect>
<rect width="324" height="279" transform="translate(43.9004 35.9004)" fill="url(#pattern0_746_1661)"></rect>
<path d="M54.5604 365.9H45.6204V351.94H54.5604V353.94H47.8804V357.84H53.9404V359.84H47.8804V363.9H54.5604V365.9ZM58.1559 365.9L61.8159 360.64L58.2559 355.5H60.7759L63.1159 359.12H63.1759L65.5559 355.5H67.8959L64.3359 360.62L67.9559 365.9H65.4359L63.0359 362.12H62.9759L60.4759 365.9H58.1559ZM71.9213 369.9V355.5H74.1013V357.22H74.2013C74.4147 356.594 74.7813 356.114 75.3013 355.78C75.8213 355.434 76.428 355.26 77.1213 355.26C78.0013 355.26 78.748 355.48 79.3613 355.92C79.9747 356.347 80.4413 356.967 80.7613 357.78C81.0947 358.58 81.2613 359.554 81.2613 360.7C81.2613 361.834 81.0947 362.807 80.7613 363.62C80.4413 364.434 79.9747 365.06 79.3613 365.5C78.748 365.927 78.0013 366.14 77.1213 366.14C76.428 366.14 75.828 365.967 75.3213 365.62C74.8147 365.274 74.4413 364.794 74.2013 364.18H74.1013V369.9H71.9213ZM76.4613 364.3C77.2213 364.3 77.828 364.054 78.2813 363.56C78.7347 363.054 78.9613 362.4 78.9613 361.6V359.8C78.9613 359 78.7347 358.354 78.2813 357.86C77.828 357.367 77.2213 357.12 76.4613 357.12C76.0213 357.12 75.6213 357.194 75.2613 357.34C74.9147 357.487 74.6347 357.694 74.4213 357.96C74.208 358.227 74.1013 358.54 74.1013 358.9V362.42C74.1013 362.82 74.208 363.16 74.4213 363.44C74.6347 363.707 74.9147 363.92 75.2613 364.08C75.6213 364.227 76.0213 364.3 76.4613 364.3ZM89.3773 365.9H87.9973C87.2506 365.9 86.6906 365.707 86.3173 365.32C85.9439 364.92 85.7573 364.387 85.7573 363.72V351.1H87.9373V364.12H89.3773V365.9ZM97.5204 366.14C96.5471 366.14 95.7004 365.92 94.9804 365.48C94.2737 365.027 93.7204 364.394 93.3204 363.58C92.9337 362.767 92.7404 361.807 92.7404 360.7C92.7404 359.594 92.9337 358.634 93.3204 357.82C93.7204 357.007 94.2737 356.38 94.9804 355.94C95.7004 355.487 96.5471 355.26 97.5204 355.26C98.4804 355.26 99.3137 355.487 100.02 355.94C100.74 356.38 101.294 357.007 101.68 357.82C102.08 358.634 102.28 359.594 102.28 360.7C102.28 361.807 102.08 362.767 101.68 363.58C101.294 364.394 100.74 365.027 100.02 365.48C99.3137 365.92 98.4804 366.14 97.5204 366.14ZM97.5204 364.32C98.2671 364.32 98.8604 364.094 99.3004 363.64C99.7537 363.174 99.9804 362.487 99.9804 361.58V359.82C99.9804 358.914 99.7537 358.234 99.3004 357.78C98.8604 357.314 98.2671 357.08 97.5204 357.08C96.7871 357.08 96.1871 357.314 95.7204 357.78C95.2671 358.234 95.0404 358.914 95.0404 359.82V361.58C95.0404 362.487 95.2671 363.174 95.7204 363.64C96.1871 364.094 96.7871 364.32 97.5204 364.32ZM108.871 365.9H106.691V355.5H108.871V357.56H108.971C109.078 357.214 109.244 356.887 109.471 356.58C109.711 356.26 110.024 356 110.411 355.8C110.798 355.6 111.271 355.5 111.831 355.5H112.411V357.6H111.551C110.978 357.6 110.491 357.667 110.091 357.8C109.691 357.934 109.384 358.12 109.171 358.36C108.971 358.6 108.871 358.9 108.871 359.26V365.9ZM117.447 353.64C116.994 353.64 116.66 353.534 116.447 353.32C116.247 353.107 116.147 352.834 116.147 352.5V352.16C116.147 351.827 116.247 351.554 116.447 351.34C116.66 351.127 116.994 351.02 117.447 351.02C117.9 351.02 118.227 351.127 118.427 351.34C118.627 351.554 118.727 351.827 118.727 352.16V352.5C118.727 352.834 118.627 353.107 118.427 353.32C118.227 353.534 117.9 353.64 117.447 353.64ZM116.347 365.9V355.5H118.527V365.9H116.347ZM125.82 365.9H123.64V355.5H125.82V357.22H125.92C126.147 356.66 126.487 356.194 126.94 355.82C127.407 355.447 128.04 355.26 128.84 355.26C129.907 355.26 130.733 355.614 131.32 356.32C131.92 357.027 132.22 358.02 132.22 359.3V365.9H130.04V359.56C130.04 358.747 129.88 358.14 129.56 357.74C129.253 357.327 128.76 357.12 128.08 357.12C127.693 357.12 127.327 357.187 126.98 357.32C126.647 357.44 126.367 357.634 126.14 357.9C125.927 358.167 125.82 358.5 125.82 358.9V365.9ZM146.382 366.88C146.382 367.6 146.195 368.2 145.822 368.68C145.462 369.174 144.895 369.54 144.122 369.78C143.348 370.02 142.335 370.14 141.082 370.14C139.962 370.14 139.048 370.04 138.342 369.84C137.648 369.64 137.142 369.354 136.822 368.98C136.515 368.607 136.362 368.16 136.362 367.64C136.362 367.067 136.515 366.614 136.822 366.28C137.142 365.96 137.582 365.747 138.142 365.64V365.42C137.755 365.3 137.462 365.1 137.262 364.82C137.062 364.54 136.962 364.207 136.962 363.82C136.962 363.287 137.142 362.88 137.502 362.6C137.875 362.307 138.315 362.1 138.822 361.98V361.9C138.195 361.607 137.715 361.194 137.382 360.66C137.062 360.127 136.902 359.514 136.902 358.82C136.902 358.114 137.062 357.494 137.382 356.96C137.715 356.427 138.188 356.014 138.802 355.72C139.428 355.414 140.175 355.26 141.042 355.26C141.402 355.26 141.735 355.287 142.042 355.34C142.362 355.394 142.662 355.474 142.942 355.58V355.3C142.942 354.834 143.055 354.474 143.282 354.22C143.508 353.967 143.848 353.84 144.302 353.84H145.882V355.58H143.782V356C144.248 356.32 144.602 356.72 144.842 357.2C145.095 357.68 145.222 358.22 145.222 358.82C145.222 359.514 145.055 360.127 144.722 360.66C144.402 361.194 143.928 361.607 143.302 361.9C142.688 362.194 141.942 362.34 141.062 362.34C140.808 362.34 140.562 362.327 140.322 362.3C140.095 362.274 139.888 362.234 139.702 362.18C139.448 362.274 139.222 362.407 139.022 362.58C138.822 362.74 138.722 362.954 138.722 363.22C138.722 363.5 138.842 363.7 139.082 363.82C139.335 363.94 139.695 364 140.162 364H142.722C144.002 364 144.928 364.254 145.502 364.76C146.088 365.267 146.382 365.974 146.382 366.88ZM144.342 367.12C144.342 366.747 144.195 366.454 143.902 366.24C143.622 366.04 143.128 365.94 142.422 365.94H138.902C138.662 366.074 138.482 366.24 138.362 366.44C138.255 366.654 138.202 366.887 138.202 367.14C138.202 367.554 138.368 367.894 138.702 368.16C139.035 368.427 139.608 368.56 140.422 368.56H141.782C142.635 368.56 143.275 368.44 143.702 368.2C144.128 367.96 144.342 367.6 144.342 367.12ZM141.062 360.78C141.702 360.78 142.195 360.634 142.542 360.34C142.902 360.047 143.082 359.607 143.082 359.02V358.6C143.082 358.014 142.902 357.574 142.542 357.28C142.195 356.987 141.702 356.84 141.062 356.84C140.422 356.84 139.922 356.987 139.562 357.28C139.215 357.574 139.042 358.014 139.042 358.6V359.02C139.042 359.607 139.215 360.047 139.562 360.34C139.922 360.634 140.422 360.78 141.062 360.78ZM45.4604 391.9V377.1H47.6404V383.22H47.7404C47.9537 382.594 48.3204 382.114 48.8404 381.78C49.3604 381.434 49.9671 381.26 50.6604 381.26C51.5404 381.26 52.2871 381.48 52.9004 381.92C53.5137 382.347 53.9804 382.967 54.3004 383.78C54.6337 384.58 54.8004 385.554 54.8004 386.7C54.8004 387.834 54.6337 388.807 54.3004 389.62C53.9804 390.434 53.5137 391.06 52.9004 391.5C52.2871 391.927 51.5404 392.14 50.6604 392.14C49.9671 392.14 49.3671 391.967 48.8604 391.62C48.3537 391.274 47.9804 390.794 47.7404 390.18H47.6404V391.9H45.4604ZM50.0004 390.3C50.7604 390.3 51.3671 390.054 51.8204 389.56C52.2737 389.054 52.5004 388.4 52.5004 387.6V385.8C52.5004 385 52.2737 384.354 51.8204 383.86C51.3671 383.367 50.7604 383.12 50.0004 383.12C49.5604 383.12 49.1604 383.194 48.8004 383.34C48.4537 383.487 48.1737 383.694 47.9604 383.96C47.7471 384.227 47.6404 384.54 47.6404 384.9V388.42C47.6404 388.82 47.7471 389.16 47.9604 389.44C48.1737 389.707 48.4537 389.92 48.8004 390.08C49.1604 390.227 49.5604 390.3 50.0004 390.3ZM61.4763 391.9H59.2963V381.5H61.4763V383.56H61.5763C61.683 383.214 61.8497 382.887 62.0763 382.58C62.3163 382.26 62.6297 382 63.0163 381.8C63.403 381.6 63.8763 381.5 64.4363 381.5H65.0163V383.6H64.1563C63.583 383.6 63.0963 383.667 62.6963 383.8C62.2963 383.934 61.9897 384.12 61.7763 384.36C61.5763 384.6 61.4763 384.9 61.4763 385.26V391.9ZM77.6363 391.9H76.4163C76.0163 391.9 75.6697 391.814 75.3763 391.64C75.0963 391.454 74.883 391.194 74.7363 390.86C74.5897 390.527 74.5163 390.134 74.5163 389.68V389.5L75.1363 390.16H74.4363C74.2363 390.8 73.8697 391.294 73.3363 391.64C72.803 391.974 72.1563 392.14 71.3963 392.14C70.3297 392.14 69.503 391.86 68.9163 391.3C68.3297 390.74 68.0363 389.987 68.0363 389.04C68.0363 388.347 68.203 387.774 68.5363 387.32C68.883 386.854 69.383 386.507 70.0363 386.28C70.6897 386.04 71.503 385.92 72.4763 385.92H74.3563V385.04C74.3563 384.414 74.183 383.927 73.8363 383.58C73.4897 383.22 72.9497 383.04 72.2163 383.04C71.6163 383.04 71.1163 383.18 70.7163 383.46C70.3297 383.727 70.003 384.06 69.7363 384.46L68.4363 383.28C68.783 382.694 69.2697 382.214 69.8963 381.84C70.5363 381.454 71.3563 381.26 72.3563 381.26C73.6897 381.26 74.7163 381.58 75.4363 382.22C76.1697 382.847 76.5363 383.74 76.5363 384.9V390.12H77.6363V391.9ZM74.3563 387.32H72.5163C71.7563 387.32 71.1897 387.44 70.8163 387.68C70.443 387.92 70.2563 388.267 70.2563 388.72V389.08C70.2563 389.534 70.4163 389.88 70.7363 390.12C71.0563 390.36 71.483 390.48 72.0163 390.48C72.4697 390.48 72.8697 390.414 73.2163 390.28C73.563 390.147 73.8363 389.954 74.0363 389.7C74.2497 389.447 74.3563 389.154 74.3563 388.82V387.32ZM83.9529 391.9H81.7729V381.5H83.9529V383.22H84.0529C84.2796 382.66 84.6196 382.194 85.0729 381.82C85.5396 381.447 86.1729 381.26 86.9729 381.26C88.0396 381.26 88.8662 381.614 89.4529 382.32C90.0529 383.027 90.3529 384.02 90.3529 385.3V391.9H88.1729V385.56C88.1729 384.747 88.0129 384.14 87.6929 383.74C87.3862 383.327 86.8929 383.12 86.2129 383.12C85.8262 383.12 85.4596 383.187 85.1129 383.32C84.7796 383.44 84.4996 383.634 84.2729 383.9C84.0596 384.167 83.9529 384.5 83.9529 384.9V391.9ZM101.914 391.9V390.18H101.814C101.574 390.794 101.201 391.274 100.694 391.62C100.188 391.967 99.5878 392.14 98.8945 392.14C98.0278 392.14 97.2811 391.927 96.6545 391.5C96.0411 391.06 95.5678 390.434 95.2345 389.62C94.9145 388.807 94.7545 387.834 94.7545 386.7C94.7545 385.554 94.9145 384.58 95.2345 383.78C95.5678 382.967 96.0411 382.347 96.6545 381.92C97.2811 381.48 98.0278 381.26 98.8945 381.26C99.5878 381.26 100.194 381.434 100.714 381.78C101.234 382.114 101.601 382.594 101.814 383.22H101.914V377.1H104.094V391.9H101.914ZM99.5545 390.3C99.9945 390.3 100.388 390.227 100.734 390.08C101.094 389.92 101.381 389.707 101.594 389.44C101.808 389.16 101.914 388.82 101.914 388.42V384.9C101.914 384.54 101.808 384.227 101.594 383.96C101.381 383.694 101.094 383.487 100.734 383.34C100.388 383.194 99.9945 383.12 99.5545 383.12C98.8078 383.12 98.2011 383.367 97.7345 383.86C97.2811 384.354 97.0545 385 97.0545 385.8V387.6C97.0545 388.4 97.2811 389.054 97.7345 389.56C98.2011 390.054 98.8078 390.3 99.5545 390.3ZM122.477 391.9V390.18H122.377C122.137 390.794 121.764 391.274 121.257 391.62C120.75 391.967 120.15 392.14 119.457 392.14C118.59 392.14 117.844 391.927 117.217 391.5C116.604 391.06 116.13 390.434 115.797 389.62C115.477 388.807 115.317 387.834 115.317 386.7C115.317 385.554 115.477 384.58 115.797 383.78C116.13 382.967 116.604 382.347 117.217 381.92C117.844 381.48 118.59 381.26 119.457 381.26C120.15 381.26 120.757 381.434 121.277 381.78C121.797 382.114 122.164 382.594 122.377 383.22H122.477V377.1H124.657V391.9H122.477ZM120.117 390.3C120.557 390.3 120.95 390.227 121.297 390.08C121.657 389.92 121.944 389.707 122.157 389.44C122.37 389.16 122.477 388.82 122.477 388.42V384.9C122.477 384.54 122.37 384.227 122.157 383.96C121.944 383.694 121.657 383.487 121.297 383.34C120.95 383.194 120.557 383.12 120.117 383.12C119.37 383.12 118.764 383.367 118.297 383.86C117.844 384.354 117.617 385 117.617 385.8V387.6C117.617 388.4 117.844 389.054 118.297 389.56C118.764 390.054 119.37 390.3 120.117 390.3ZM133.873 392.14C132.886 392.14 132.033 391.92 131.313 391.48C130.593 391.027 130.033 390.394 129.633 389.58C129.246 388.767 129.053 387.807 129.053 386.7C129.053 385.594 129.246 384.64 129.633 383.84C130.02 383.027 130.566 382.394 131.273 381.94C131.98 381.487 132.826 381.26 133.813 381.26C134.84 381.26 135.693 381.494 136.373 381.96C137.066 382.414 137.586 383.034 137.933 383.82C138.28 384.607 138.453 385.48 138.453 386.44V387.26H131.333V387.6C131.333 388.4 131.566 389.06 132.033 389.58C132.513 390.087 133.193 390.34 134.073 390.34C134.713 390.34 135.253 390.2 135.693 389.92C136.133 389.64 136.5 389.26 136.793 388.78L138.093 390.04C137.693 390.667 137.126 391.174 136.393 391.56C135.673 391.947 134.833 392.14 133.873 392.14ZM133.853 382.96C133.346 382.96 132.9 383.08 132.513 383.32C132.14 383.547 131.846 383.867 131.633 384.28C131.433 384.68 131.333 385.147 131.333 385.68V385.82H136.173V385.62C136.173 385.087 136.08 384.62 135.893 384.22C135.706 383.82 135.44 383.514 135.093 383.3C134.746 383.074 134.333 382.96 133.853 382.96ZM146.167 392.14C145.193 392.14 144.367 391.967 143.687 391.62C143.02 391.274 142.44 390.794 141.947 390.18L143.347 388.9C143.733 389.354 144.16 389.714 144.627 389.98C145.107 390.247 145.66 390.38 146.287 390.38C146.927 390.38 147.4 390.26 147.707 390.02C148.027 389.767 148.187 389.42 148.187 388.98C148.187 388.647 148.073 388.367 147.847 388.14C147.633 387.914 147.253 387.76 146.707 387.68L145.747 387.56C145.053 387.454 144.447 387.28 143.927 387.04C143.407 386.8 143.007 386.474 142.727 386.06C142.46 385.634 142.327 385.1 142.327 384.46C142.327 383.447 142.68 382.66 143.387 382.1C144.107 381.54 145.04 381.26 146.187 381.26C146.813 381.26 147.36 381.327 147.827 381.46C148.293 381.594 148.707 381.787 149.067 382.04C149.427 382.28 149.76 382.574 150.067 382.92L148.727 384.2C148.46 383.88 148.107 383.607 147.667 383.38C147.24 383.14 146.747 383.02 146.187 383.02C145.6 383.02 145.16 383.14 144.867 383.38C144.573 383.607 144.427 383.92 144.427 384.32C144.427 384.72 144.553 385.02 144.807 385.22C145.073 385.42 145.48 385.567 146.027 385.66L146.987 385.78C148.133 385.954 148.967 386.294 149.487 386.8C150.02 387.294 150.287 387.96 150.287 388.8C150.287 389.467 150.113 390.054 149.767 390.56C149.433 391.054 148.96 391.44 148.347 391.72C147.733 392 147.007 392.14 146.167 392.14ZM155.849 379.64C155.396 379.64 155.063 379.534 154.849 379.32C154.649 379.107 154.549 378.834 154.549 378.5V378.16C154.549 377.827 154.649 377.554 154.849 377.34C155.063 377.127 155.396 377.02 155.849 377.02C156.303 377.02 156.629 377.127 156.829 377.34C157.029 377.554 157.129 377.827 157.129 378.16V378.5C157.129 378.834 157.029 379.107 156.829 379.32C156.629 379.534 156.303 379.64 155.849 379.64ZM154.749 391.9V381.5H156.929V391.9H154.749ZM171.182 392.88C171.182 393.6 170.996 394.2 170.622 394.68C170.262 395.174 169.696 395.54 168.922 395.78C168.149 396.02 167.136 396.14 165.882 396.14C164.762 396.14 163.849 396.04 163.142 395.84C162.449 395.64 161.942 395.354 161.622 394.98C161.316 394.607 161.162 394.16 161.162 393.64C161.162 393.067 161.316 392.614 161.622 392.28C161.942 391.96 162.382 391.747 162.942 391.64V391.42C162.556 391.3 162.262 391.1 162.062 390.82C161.862 390.54 161.762 390.207 161.762 389.82C161.762 389.287 161.942 388.88 162.302 388.6C162.676 388.307 163.116 388.1 163.622 387.98V387.9C162.996 387.607 162.516 387.194 162.182 386.66C161.862 386.127 161.702 385.514 161.702 384.82C161.702 384.114 161.862 383.494 162.182 382.96C162.516 382.427 162.989 382.014 163.602 381.72C164.229 381.414 164.976 381.26 165.842 381.26C166.202 381.26 166.536 381.287 166.842 381.34C167.162 381.394 167.462 381.474 167.742 381.58V381.3C167.742 380.834 167.856 380.474 168.082 380.22C168.309 379.967 168.649 379.84 169.102 379.84H170.682V381.58H168.582V382C169.049 382.32 169.402 382.72 169.642 383.2C169.896 383.68 170.022 384.22 170.022 384.82C170.022 385.514 169.856 386.127 169.522 386.66C169.202 387.194 168.729 387.607 168.102 387.9C167.489 388.194 166.742 388.34 165.862 388.34C165.609 388.34 165.362 388.327 165.122 388.3C164.896 388.274 164.689 388.234 164.502 388.18C164.249 388.274 164.022 388.407 163.822 388.58C163.622 388.74 163.522 388.954 163.522 389.22C163.522 389.5 163.642 389.7 163.882 389.82C164.136 389.94 164.496 390 164.962 390H167.522C168.802 390 169.729 390.254 170.302 390.76C170.889 391.267 171.182 391.974 171.182 392.88ZM169.142 393.12C169.142 392.747 168.996 392.454 168.702 392.24C168.422 392.04 167.929 391.94 167.222 391.94H163.702C163.462 392.074 163.282 392.24 163.162 392.44C163.056 392.654 163.002 392.887 163.002 393.14C163.002 393.554 163.169 393.894 163.502 394.16C163.836 394.427 164.409 394.56 165.222 394.56H166.582C167.436 394.56 168.076 394.44 168.502 394.2C168.929 393.96 169.142 393.6 169.142 393.12ZM165.862 386.78C166.502 386.78 166.996 386.634 167.342 386.34C167.702 386.047 167.882 385.607 167.882 385.02V384.6C167.882 384.014 167.702 383.574 167.342 383.28C166.996 382.987 166.502 382.84 165.862 382.84C165.222 382.84 164.722 382.987 164.362 383.28C164.016 383.574 163.842 384.014 163.842 384.6V385.02C163.842 385.607 164.016 386.047 164.362 386.34C164.722 386.634 165.222 386.78 165.862 386.78ZM176.984 391.9H174.804V381.5H176.984V383.22H177.084C177.311 382.66 177.651 382.194 178.104 381.82C178.571 381.447 179.204 381.26 180.004 381.26C181.071 381.26 181.897 381.614 182.484 382.32C183.084 383.027 183.384 384.02 183.384 385.3V391.9H181.204V385.56C181.204 384.747 181.044 384.14 180.724 383.74C180.417 383.327 179.924 383.12 179.244 383.12C178.857 383.12 178.491 383.187 178.144 383.32C177.811 383.44 177.531 383.634 177.304 383.9C177.091 384.167 176.984 384.5 176.984 384.9V391.9ZM190.346 387.9H189.346L188.686 381.92V377.94H191.026V381.92L190.346 387.9ZM189.846 392.14C189.339 392.14 188.966 392.02 188.726 391.78C188.499 391.527 188.386 391.207 188.386 390.82V390.48C188.386 390.094 188.499 389.78 188.726 389.54C188.966 389.287 189.339 389.16 189.846 389.16C190.352 389.16 190.719 389.287 190.946 389.54C191.186 389.78 191.306 390.094 191.306 390.48V390.82C191.306 391.207 191.186 391.527 190.946 391.78C190.719 392.02 190.352 392.14 189.846 392.14Z" fill="#5BA9E6"></path>
</g>
<defs>
<filter id="filter0_d_746_1661" x="0.000391006" y="0.000391006" width="414.8" height="457.8" filterUnits="userSpaceOnUse" color-interpolation-filters="sRGB">
<feFlood flood-opacity="0" result="BackgroundImageFix"></feFlood>
<feColorMatrix in="SourceAlpha" type="matrix" values="0 0 0 0 0 0 0 0 0 0 0 0 0 0 0 0 0 0 127 0" result="hardAlpha"></feColorMatrix>
<feMorphology radius="6" operator="dilate" in="SourceAlpha" result="effect1_dropShadow_746_1661"></feMorphology>
<feOffset dx="1" dy="4"></feOffset>
<feGaussianBlur stdDeviation="8.95"></feGaussianBlur>
<feComposite in2="hardAlpha" operator="out"></feComposite>
<feColorMatrix type="matrix" values="0 0 0 0 0 0 0 0 0 0 0 0 0 0 0 0 0 0 0.17 0"></feColorMatrix>
<feBlend mode="normal" in2="BackgroundImageFix" result="effect1_dropShadow_746_1661"></feBlend>
<feBlend mode="normal" in="SourceGraphic" in2="effect1_dropShadow_746_1661" result="shape"></feBlend>
</filter>
<pattern id="pattern0_746_1661" patternContentUnits="objectBoundingBox" width="1" height="1">
<use xlink:href="#image0_746_1661" transform="matrix(0.00056652 0 0 0.000657895 -0.167024 0.000922826)"></use>
</pattern>
<image id="image0_746_1661" width="2104" height="1520" preserveAspectRatio="none"></image>
</defs>
</svg>