<svg width="415" height="458" viewBox="0 0 415 458" fill="none" xmlns="http://www.w3.org/2000/svg" xmlns:xlink="http://www.w3.org/1999/xlink">
<g filter="url(#filter0_d_746_1702)">
<rect width="367" height="410" transform="translate(22.9004 19.9004)" fill="#F7F7F7"></rect>
<rect width="324" height="279" transform="translate(43.9004 35.9004)" fill="black"></rect>
<rect width="324" height="279" transform="translate(43.9004 35.9004)" fill="url(#pattern0_746_1702)"></rect>
<path d="M51.4404 365.9H48.8204L44.2404 351.94H46.6004L48.8004 358.84L50.1604 363.7H50.2404L51.6004 358.84L53.8204 351.94H56.0804L51.4404 365.9ZM61.0995 353.64C60.6461 353.64 60.3128 353.534 60.0995 353.32C59.8995 353.107 59.7995 352.834 59.7995 352.5V352.16C59.7995 351.827 59.8995 351.554 60.0995 351.34C60.3128 351.127 60.6461 351.02 61.0995 351.02C61.5528 351.02 61.8795 351.127 62.0795 351.34C62.2795 351.554 62.3795 351.827 62.3795 352.16V352.5C62.3795 352.834 62.2795 353.107 62.0795 353.32C61.8795 353.534 61.5528 353.64 61.0995 353.64ZM59.9995 365.9V355.5H62.1795V365.9H59.9995ZM67.2924 365.9V351.1H69.4724V357.22H69.5724C69.7858 356.594 70.1524 356.114 70.6724 355.78C71.1924 355.434 71.7991 355.26 72.4924 355.26C73.3724 355.26 74.1191 355.48 74.7324 355.92C75.3458 356.347 75.8124 356.967 76.1324 357.78C76.4658 358.58 76.6324 359.554 76.6324 360.7C76.6324 361.834 76.4658 362.807 76.1324 363.62C75.8124 364.434 75.3458 365.06 74.7324 365.5C74.1191 365.927 73.3724 366.14 72.4924 366.14C71.7991 366.14 71.1991 365.967 70.6924 365.62C70.1858 365.274 69.8124 364.794 69.5724 364.18H69.4724V365.9H67.2924ZM71.8324 364.3C72.5924 364.3 73.1991 364.054 73.6524 363.56C74.1058 363.054 74.3324 362.4 74.3324 361.6V359.8C74.3324 359 74.1058 358.354 73.6524 357.86C73.1991 357.367 72.5924 357.12 71.8324 357.12C71.3924 357.12 70.9924 357.194 70.6324 357.34C70.2858 357.487 70.0058 357.694 69.7924 357.96C69.5791 358.227 69.4724 358.54 69.4724 358.9V362.42C69.4724 362.82 69.5791 363.16 69.7924 363.44C70.0058 363.707 70.2858 363.92 70.6324 364.08C70.9924 364.227 71.3924 364.3 71.8324 364.3ZM85.2284 366.14C84.2417 366.14 83.3884 365.92 82.6684 365.48C81.9484 365.027 81.3884 364.394 80.9884 363.58C80.6017 362.767 80.4084 361.807 80.4084 360.7C80.4084 359.594 80.6017 358.64 80.9884 357.84C81.375 357.027 81.9217 356.394 82.6284 355.94C83.335 355.487 84.1817 355.26 85.1684 355.26C86.195 355.26 87.0484 355.494 87.7284 355.96C88.4217 356.414 88.9417 357.034 89.2884 357.82C89.635 358.607 89.8084 359.48 89.8084 360.44V361.26H82.6884V361.6C82.6884 362.4 82.9217 363.06 83.3884 363.58C83.8684 364.087 84.5484 364.34 85.4284 364.34C86.0684 364.34 86.6084 364.2 87.0484 363.92C87.4884 363.64 87.855 363.26 88.1484 362.78L89.4484 364.04C89.0484 364.667 88.4817 365.174 87.7484 365.56C87.0284 365.947 86.1884 366.14 85.2284 366.14ZM85.2084 356.96C84.7017 356.96 84.255 357.08 83.8684 357.32C83.495 357.547 83.2017 357.867 82.9884 358.28C82.7884 358.68 82.6884 359.147 82.6884 359.68V359.82H87.5284V359.62C87.5284 359.087 87.435 358.62 87.2484 358.22C87.0617 357.82 86.795 357.514 86.4484 357.3C86.1017 357.074 85.6884 356.96 85.2084 356.96ZM99.6374 360.92H94.0974V358.7H99.6374V360.92ZM110.138 366.14C108.924 366.14 107.878 365.874 106.998 365.34C106.118 364.794 105.444 363.994 104.978 362.94C104.511 361.887 104.278 360.574 104.278 359C104.278 357.44 104.511 356.12 104.978 355.04C105.444 353.947 106.118 353.12 106.998 352.56C107.878 351.987 108.924 351.7 110.138 351.7C111.338 351.7 112.344 351.967 113.158 352.5C113.984 353.034 114.638 353.82 115.118 354.86L113.218 355.9C112.978 355.234 112.604 354.707 112.098 354.32C111.604 353.92 110.951 353.72 110.138 353.72C109.058 353.72 108.211 354.094 107.598 354.84C106.984 355.587 106.678 356.607 106.678 357.9V360.04C106.678 361.32 106.984 362.32 107.598 363.04C108.211 363.76 109.058 364.12 110.138 364.12C110.964 364.12 111.644 363.907 112.178 363.48C112.711 363.04 113.104 362.48 113.358 361.8L115.178 362.9C114.711 363.9 114.051 364.694 113.198 365.28C112.358 365.854 111.338 366.14 110.138 366.14ZM123.474 366.14C122.5 366.14 121.654 365.92 120.934 365.48C120.227 365.027 119.674 364.394 119.274 363.58C118.887 362.767 118.694 361.807 118.694 360.7C118.694 359.594 118.887 358.634 119.274 357.82C119.674 357.007 120.227 356.38 120.934 355.94C121.654 355.487 122.5 355.26 123.474 355.26C124.434 355.26 125.267 355.487 125.974 355.94C126.694 356.38 127.247 357.007 127.634 357.82C128.034 358.634 128.234 359.594 128.234 360.7C128.234 361.807 128.034 362.767 127.634 363.58C127.247 364.394 126.694 365.027 125.974 365.48C125.267 365.92 124.434 366.14 123.474 366.14ZM123.474 364.32C124.22 364.32 124.814 364.094 125.254 363.64C125.707 363.174 125.934 362.487 125.934 361.58V359.82C125.934 358.914 125.707 358.234 125.254 357.78C124.814 357.314 124.22 357.08 123.474 357.08C122.74 357.08 122.14 357.314 121.674 357.78C121.22 358.234 120.994 358.914 120.994 359.82V361.58C120.994 362.487 121.22 363.174 121.674 363.64C122.14 364.094 122.74 364.32 123.474 364.32ZM139.184 365.9V364.18H139.084C138.844 364.794 138.471 365.274 137.964 365.62C137.457 365.967 136.857 366.14 136.164 366.14C135.297 366.14 134.551 365.927 133.924 365.5C133.311 365.06 132.837 364.434 132.504 363.62C132.184 362.807 132.024 361.834 132.024 360.7C132.024 359.554 132.184 358.58 132.504 357.78C132.837 356.967 133.311 356.347 133.924 355.92C134.551 355.48 135.297 355.26 136.164 355.26C136.857 355.26 137.464 355.434 137.984 355.78C138.504 356.114 138.871 356.594 139.084 357.22H139.184V351.1H141.364V365.9H139.184ZM136.824 364.3C137.264 364.3 137.657 364.227 138.004 364.08C138.364 363.92 138.651 363.707 138.864 363.44C139.077 363.16 139.184 362.82 139.184 362.42V358.9C139.184 358.54 139.077 358.227 138.864 357.96C138.651 357.694 138.364 357.487 138.004 357.34C137.657 357.194 137.264 357.12 136.824 357.12C136.077 357.12 135.471 357.367 135.004 357.86C134.551 358.354 134.324 359 134.324 359.8V361.6C134.324 362.4 134.551 363.054 135.004 363.56C135.471 364.054 136.077 364.3 136.824 364.3ZM147.58 353.64C147.127 353.64 146.793 353.534 146.58 353.32C146.38 353.107 146.28 352.834 146.28 352.5V352.16C146.28 351.827 146.38 351.554 146.58 351.34C146.793 351.127 147.127 351.02 147.58 351.02C148.033 351.02 148.36 351.127 148.56 351.34C148.76 351.554 148.86 351.827 148.86 352.16V352.5C148.86 352.834 148.76 353.107 148.56 353.32C148.36 353.534 148.033 353.64 147.58 353.64ZM146.48 365.9V355.5H148.66V365.9H146.48ZM155.953 365.9H153.773V355.5H155.953V357.22H156.053C156.28 356.66 156.62 356.194 157.073 355.82C157.54 355.447 158.173 355.26 158.973 355.26C160.04 355.26 160.866 355.614 161.453 356.32C162.053 357.027 162.353 358.02 162.353 359.3V365.9H160.173V359.56C160.173 358.747 160.013 358.14 159.693 357.74C159.386 357.327 158.893 357.12 158.213 357.12C157.826 357.12 157.46 357.187 157.113 357.32C156.78 357.44 156.5 357.634 156.273 357.9C156.06 358.167 155.953 358.5 155.953 358.9V365.9ZM176.514 366.88C176.514 367.6 176.328 368.2 175.954 368.68C175.594 369.174 175.028 369.54 174.254 369.78C173.481 370.02 172.468 370.14 171.214 370.14C170.094 370.14 169.181 370.04 168.474 369.84C167.781 369.64 167.274 369.354 166.954 368.98C166.648 368.607 166.494 368.16 166.494 367.64C166.494 367.067 166.648 366.614 166.954 366.28C167.274 365.96 167.714 365.747 168.274 365.64V365.42C167.888 365.3 167.594 365.1 167.394 364.82C167.194 364.54 167.094 364.207 167.094 363.82C167.094 363.287 167.274 362.88 167.634 362.6C168.008 362.307 168.448 362.1 168.954 361.98V361.9C168.328 361.607 167.848 361.194 167.514 360.66C167.194 360.127 167.034 359.514 167.034 358.82C167.034 358.114 167.194 357.494 167.514 356.96C167.848 356.427 168.321 356.014 168.934 355.72C169.561 355.414 170.308 355.26 171.174 355.26C171.534 355.26 171.868 355.287 172.174 355.34C172.494 355.394 172.794 355.474 173.074 355.58V355.3C173.074 354.834 173.188 354.474 173.414 354.22C173.641 353.967 173.981 353.84 174.434 353.84H176.014V355.58H173.914V356C174.381 356.32 174.734 356.72 174.974 357.2C175.228 357.68 175.354 358.22 175.354 358.82C175.354 359.514 175.188 360.127 174.854 360.66C174.534 361.194 174.061 361.607 173.434 361.9C172.821 362.194 172.074 362.34 171.194 362.34C170.941 362.34 170.694 362.327 170.454 362.3C170.228 362.274 170.021 362.234 169.834 362.18C169.581 362.274 169.354 362.407 169.154 362.58C168.954 362.74 168.854 362.954 168.854 363.22C168.854 363.5 168.974 363.7 169.214 363.82C169.468 363.94 169.828 364 170.294 364H172.854C174.134 364 175.061 364.254 175.634 364.76C176.221 365.267 176.514 365.974 176.514 366.88ZM174.474 367.12C174.474 366.747 174.328 366.454 174.034 366.24C173.754 366.04 173.261 365.94 172.554 365.94H169.034C168.794 366.074 168.614 366.24 168.494 366.44C168.388 366.654 168.334 366.887 168.334 367.14C168.334 367.554 168.501 367.894 168.834 368.16C169.168 368.427 169.741 368.56 170.554 368.56H171.914C172.768 368.56 173.408 368.44 173.834 368.2C174.261 367.96 174.474 367.6 174.474 367.12ZM171.194 360.78C171.834 360.78 172.328 360.634 172.674 360.34C173.034 360.047 173.214 359.607 173.214 359.02V358.6C173.214 358.014 173.034 357.574 172.674 357.28C172.328 356.987 171.834 356.84 171.194 356.84C170.554 356.84 170.054 356.987 169.694 357.28C169.348 357.574 169.174 358.014 169.174 358.6V359.02C169.174 359.607 169.348 360.047 169.694 360.34C170.054 360.634 170.554 360.78 171.194 360.78ZM195.703 365.9H194.483C194.083 365.9 193.736 365.814 193.443 365.64C193.163 365.454 192.949 365.194 192.803 364.86C192.656 364.527 192.583 364.134 192.583 363.68V363.5L193.203 364.16H192.503C192.303 364.8 191.936 365.294 191.403 365.64C190.869 365.974 190.223 366.14 189.463 366.14C188.396 366.14 187.569 365.86 186.983 365.3C186.396 364.74 186.103 363.987 186.103 363.04C186.103 362.347 186.269 361.774 186.603 361.32C186.949 360.854 187.449 360.507 188.103 360.28C188.756 360.04 189.569 359.92 190.543 359.92H192.423V359.04C192.423 358.414 192.249 357.927 191.903 357.58C191.556 357.22 191.016 357.04 190.283 357.04C189.683 357.04 189.183 357.18 188.783 357.46C188.396 357.727 188.069 358.06 187.803 358.46L186.503 357.28C186.849 356.694 187.336 356.214 187.963 355.84C188.603 355.454 189.423 355.26 190.423 355.26C191.756 355.26 192.783 355.58 193.503 356.22C194.236 356.847 194.603 357.74 194.603 358.9V364.12H195.703V365.9ZM192.423 361.32H190.583C189.823 361.32 189.256 361.44 188.883 361.68C188.509 361.92 188.323 362.267 188.323 362.72V363.08C188.323 363.534 188.483 363.88 188.803 364.12C189.123 364.36 189.549 364.48 190.083 364.48C190.536 364.48 190.936 364.414 191.283 364.28C191.629 364.147 191.903 363.954 192.103 363.7C192.316 363.447 192.423 363.154 192.423 362.82V361.32ZM206.566 369.9V355.5H208.746V357.22H208.846C209.059 356.594 209.426 356.114 209.946 355.78C210.466 355.434 211.073 355.26 211.766 355.26C212.646 355.26 213.393 355.48 214.006 355.92C214.619 356.347 215.086 356.967 215.406 357.78C215.739 358.58 215.906 359.554 215.906 360.7C215.906 361.834 215.739 362.807 215.406 363.62C215.086 364.434 214.619 365.06 214.006 365.5C213.393 365.927 212.646 366.14 211.766 366.14C211.073 366.14 210.473 365.967 209.966 365.62C209.459 365.274 209.086 364.794 208.846 364.18H208.746V369.9H206.566ZM211.106 364.3C211.866 364.3 212.473 364.054 212.926 363.56C213.379 363.054 213.606 362.4 213.606 361.6V359.8C213.606 359 213.379 358.354 212.926 357.86C212.473 357.367 211.866 357.12 211.106 357.12C210.666 357.12 210.266 357.194 209.906 357.34C209.559 357.487 209.279 357.694 209.066 357.96C208.853 358.227 208.746 358.54 208.746 358.9V362.42C208.746 362.82 208.853 363.16 209.066 363.44C209.279 363.707 209.559 363.92 209.906 364.08C210.266 364.227 210.666 364.3 211.106 364.3ZM222.582 365.9H220.402V355.5H222.582V357.56H222.682C222.788 357.214 222.955 356.887 223.182 356.58C223.422 356.26 223.735 356 224.122 355.8C224.508 355.6 224.982 355.5 225.542 355.5H226.122V357.6H225.262C224.688 357.6 224.202 357.667 223.802 357.8C223.402 357.934 223.095 358.12 222.882 358.36C222.682 358.6 222.582 358.9 222.582 359.26V365.9ZM234.02 366.14C233.047 366.14 232.2 365.92 231.48 365.48C230.774 365.027 230.22 364.394 229.82 363.58C229.434 362.767 229.24 361.807 229.24 360.7C229.24 359.594 229.434 358.634 229.82 357.82C230.22 357.007 230.774 356.38 231.48 355.94C232.2 355.487 233.047 355.26 234.02 355.26C234.98 355.26 235.814 355.487 236.52 355.94C237.24 356.38 237.794 357.007 238.18 357.82C238.58 358.634 238.78 359.594 238.78 360.7C238.78 361.807 238.58 362.767 238.18 363.58C237.794 364.394 237.24 365.027 236.52 365.48C235.814 365.92 234.98 366.14 234.02 366.14ZM234.02 364.32C234.767 364.32 235.36 364.094 235.8 363.64C236.254 363.174 236.48 362.487 236.48 361.58V359.82C236.48 358.914 236.254 358.234 235.8 357.78C235.36 357.314 234.767 357.08 234.02 357.08C233.287 357.08 232.687 357.314 232.22 357.78C231.767 358.234 231.54 358.914 231.54 359.82V361.58C231.54 362.487 231.767 363.174 232.22 363.64C232.687 364.094 233.287 364.32 234.02 364.32ZM249.731 365.9V364.18H249.631C249.391 364.794 249.018 365.274 248.511 365.62C248.004 365.967 247.404 366.14 246.711 366.14C245.844 366.14 245.098 365.927 244.471 365.5C243.858 365.06 243.384 364.434 243.051 363.62C242.731 362.807 242.571 361.834 242.571 360.7C242.571 359.554 242.731 358.58 243.051 357.78C243.384 356.967 243.858 356.347 244.471 355.92C245.098 355.48 245.844 355.26 246.711 355.26C247.404 355.26 248.011 355.434 248.531 355.78C249.051 356.114 249.418 356.594 249.631 357.22H249.731V351.1L251.911 351.1V365.9H249.731ZM247.371 364.3C247.811 364.3 248.204 364.227 248.551 364.08C248.911 363.92 249.198 363.707 249.411 363.44C249.624 363.16 249.731 362.82 249.731 362.42V358.9C249.731 358.54 249.624 358.227 249.411 357.96C249.198 357.694 248.911 357.487 248.551 357.34C248.204 357.194 247.811 357.12 247.371 357.12C246.624 357.12 246.018 357.367 245.551 357.86C245.098 358.354 244.871 359 244.871 359.8V361.6C244.871 362.4 245.098 363.054 245.551 363.56C246.018 364.054 246.624 364.3 247.371 364.3ZM263.327 365.9V364.18H263.227C263.04 364.7 262.72 365.16 262.267 365.56C261.827 365.947 261.173 366.14 260.307 366.14C259.253 366.14 258.427 365.794 257.827 365.1C257.227 364.394 256.927 363.4 256.927 362.12V355.5H259.107V361.84C259.107 362.64 259.267 363.254 259.587 363.68C259.92 364.094 260.42 364.3 261.087 364.3C261.473 364.3 261.833 364.234 262.167 364.1C262.513 363.967 262.793 363.767 263.007 363.5C263.22 363.234 263.327 362.9 263.327 362.5V355.5H265.507V365.9H263.327ZM274.648 366.14C273.142 366.14 271.975 365.654 271.148 364.68C270.322 363.694 269.908 362.367 269.908 360.7C269.908 359.034 270.322 357.714 271.148 356.74C271.975 355.754 273.142 355.26 274.648 355.26C275.688 355.26 276.542 355.494 277.208 355.96C277.875 356.427 278.355 357.047 278.648 357.82L276.848 358.66C276.702 358.18 276.442 357.8 276.068 357.52C275.695 357.227 275.222 357.08 274.648 357.08C273.848 357.08 273.242 357.334 272.828 357.84C272.415 358.334 272.208 358.98 272.208 359.78V361.62C272.208 362.42 272.415 363.074 272.828 363.58C273.242 364.087 273.848 364.34 274.648 364.34C275.275 364.34 275.782 364.187 276.168 363.88C276.555 363.56 276.862 363.14 277.088 362.62L278.728 363.5C278.395 364.354 277.882 365.007 277.188 365.46C276.495 365.914 275.648 366.14 274.648 366.14ZM287.584 365.9H285.684C284.937 365.9 284.364 365.7 283.964 365.3C283.577 364.887 283.384 364.327 283.384 363.62V357.28H281.764V355.5H282.644C283.004 355.5 283.251 355.42 283.384 355.26C283.531 355.1 283.604 354.84 283.604 354.48V352.66H285.564V355.5H287.744V357.28H285.564V364.12H287.584V365.9ZM49.4804 392.14C47.9737 392.14 46.8071 391.654 45.9804 390.68C45.1537 389.694 44.7404 388.367 44.7404 386.7C44.7404 385.034 45.1537 383.714 45.9804 382.74C46.8071 381.754 47.9737 381.26 49.4804 381.26C50.5204 381.26 51.3737 381.494 52.0404 381.96C52.7071 382.427 53.1871 383.047 53.4804 383.82L51.6804 384.66C51.5337 384.18 51.2737 383.8 50.9004 383.52C50.5271 383.227 50.0537 383.08 49.4804 383.08C48.6804 383.08 48.0737 383.334 47.6604 383.84C47.2471 384.334 47.0404 384.98 47.0404 385.78V387.62C47.0404 388.42 47.2471 389.074 47.6604 389.58C48.0737 390.087 48.6804 390.34 49.4804 390.34C50.1071 390.34 50.6137 390.187 51.0004 389.88C51.3871 389.56 51.6937 389.14 51.9204 388.62L53.5604 389.5C53.2271 390.354 52.7137 391.007 52.0204 391.46C51.3271 391.914 50.4804 392.14 49.4804 392.14ZM61.579 392.14C60.6057 392.14 59.759 391.92 59.039 391.48C58.3323 391.027 57.779 390.394 57.379 389.58C56.9923 388.767 56.799 387.807 56.799 386.7C56.799 385.594 56.9923 384.634 57.379 383.82C57.779 383.007 58.3323 382.38 59.039 381.94C59.759 381.487 60.6057 381.26 61.579 381.26C62.539 381.26 63.3723 381.487 64.079 381.94C64.799 382.38 65.3523 383.007 65.739 383.82C66.139 384.634 66.339 385.594 66.339 386.7C66.339 387.807 66.139 388.767 65.739 389.58C65.3523 390.394 64.799 391.027 64.079 391.48C63.3723 391.92 62.539 392.14 61.579 392.14ZM61.579 390.32C62.3257 390.32 62.919 390.094 63.359 389.64C63.8123 389.174 64.039 388.487 64.039 387.58V385.82C64.039 384.914 63.8123 384.234 63.359 383.78C62.919 383.314 62.3257 383.08 61.579 383.08C60.8457 383.08 60.2457 383.314 59.779 383.78C59.3257 384.234 59.099 384.914 59.099 385.82V387.58C59.099 388.487 59.3257 389.174 59.779 389.64C60.2457 390.094 60.8457 390.32 61.579 390.32ZM72.9295 391.9H70.7495V381.5H72.9295V383.22H73.0295C73.2561 382.66 73.5961 382.194 74.0495 381.82C74.5161 381.447 75.1495 381.26 75.9495 381.26C77.0161 381.26 77.8428 381.614 78.4295 382.32C79.0295 383.027 79.3295 384.02 79.3295 385.3V391.9H77.1495V385.56C77.1495 384.747 76.9895 384.14 76.6695 383.74C76.3628 383.327 75.8695 383.12 75.1895 383.12C74.8028 383.12 74.4361 383.187 74.0895 383.32C73.7561 383.44 73.4761 383.634 73.2495 383.9C73.0361 384.167 72.9295 384.5 72.9295 384.9V391.9ZM88.371 392.14C86.8643 392.14 85.6977 391.654 84.871 390.68C84.0443 389.694 83.631 388.367 83.631 386.7C83.631 385.034 84.0443 383.714 84.871 382.74C85.6977 381.754 86.8643 381.26 88.371 381.26C89.411 381.26 90.2643 381.494 90.931 381.96C91.5977 382.427 92.0777 383.047 92.371 383.82L90.571 384.66C90.4243 384.18 90.1643 383.8 89.791 383.52C89.4177 383.227 88.9443 383.08 88.371 383.08C87.571 383.08 86.9643 383.334 86.551 383.84C86.1377 384.334 85.931 384.98 85.931 385.78V387.62C85.931 388.42 86.1377 389.074 86.551 389.58C86.9643 390.087 87.571 390.34 88.371 390.34C88.9977 390.34 89.5043 390.187 89.891 389.88C90.2777 389.56 90.5843 389.14 90.811 388.62L92.451 389.5C92.1177 390.354 91.6043 391.007 90.911 391.46C90.2177 391.914 89.371 392.14 88.371 392.14ZM100.51 392.14C99.5229 392.14 98.6696 391.92 97.9496 391.48C97.2296 391.027 96.6696 390.394 96.2696 389.58C95.8829 388.767 95.6896 387.807 95.6896 386.7C95.6896 385.594 95.8829 384.64 96.2696 383.84C96.6563 383.027 97.2029 382.394 97.9096 381.94C98.6163 381.487 99.4629 381.26 100.45 381.26C101.476 381.26 102.33 381.494 103.01 381.96C103.703 382.414 104.223 383.034 104.57 383.82C104.916 384.607 105.09 385.48 105.09 386.44V387.26H97.9696V387.6C97.9696 388.4 98.2029 389.06 98.6696 389.58C99.1496 390.087 99.8296 390.34 100.71 390.34C101.35 390.34 101.89 390.2 102.33 389.92C102.77 389.64 103.136 389.26 103.43 388.78L104.73 390.04C104.33 390.667 103.763 391.174 103.03 391.56C102.31 391.947 101.47 392.14 100.51 392.14ZM100.49 382.96C99.9829 382.96 99.5363 383.08 99.1496 383.32C98.7763 383.547 98.4829 383.867 98.2696 384.28C98.0696 384.68 97.9696 385.147 97.9696 385.68V385.82H102.81V385.62C102.81 385.087 102.716 384.62 102.53 384.22C102.343 383.82 102.076 383.514 101.73 383.3C101.383 383.074 100.97 382.96 100.49 382.96ZM109.503 395.9V381.5H111.683V383.22H111.783C111.997 382.594 112.363 382.114 112.883 381.78C113.403 381.434 114.01 381.26 114.703 381.26C115.583 381.26 116.33 381.48 116.943 381.92C117.557 382.347 118.023 382.967 118.343 383.78C118.677 384.58 118.843 385.554 118.843 386.7C118.843 387.834 118.677 388.807 118.343 389.62C118.023 390.434 117.557 391.06 116.943 391.5C116.33 391.927 115.583 392.14 114.703 392.14C114.01 392.14 113.41 391.967 112.903 391.62C112.397 391.274 112.023 390.794 111.783 390.18H111.683V395.9H109.503ZM114.043 390.3C114.803 390.3 115.41 390.054 115.863 389.56C116.317 389.054 116.543 388.4 116.543 387.6V385.8C116.543 385 116.317 384.354 115.863 383.86C115.41 383.367 114.803 383.12 114.043 383.12C113.603 383.12 113.203 383.194 112.843 383.34C112.497 383.487 112.217 383.694 112.003 383.96C111.79 384.227 111.683 384.54 111.683 384.9V388.42C111.683 388.82 111.79 389.16 112.003 389.44C112.217 389.707 112.497 389.92 112.843 390.08C113.203 390.227 113.603 390.3 114.043 390.3ZM128.002 391.9H126.102C125.355 391.9 124.782 391.7 124.382 391.3C123.995 390.887 123.802 390.327 123.802 389.62V383.28H122.182V381.5H123.062C123.422 381.5 123.669 381.42 123.802 381.26C123.949 381.1 124.022 380.84 124.022 380.48V378.66H125.982V381.5H128.162V383.28H125.982V390.12H128.002V391.9ZM134.467 387.9H133.467L132.807 381.92V377.94H135.147V381.92L134.467 387.9ZM133.967 392.14C133.46 392.14 133.087 392.02 132.847 391.78C132.62 391.527 132.507 391.207 132.507 390.82V390.48C132.507 390.094 132.62 389.78 132.847 389.54C133.087 389.287 133.46 389.16 133.967 389.16C134.473 389.16 134.84 389.287 135.067 389.54C135.307 389.78 135.427 390.094 135.427 390.48V390.82C135.427 391.207 135.307 391.527 135.067 391.78C134.84 392.02 134.473 392.14 133.967 392.14Z" fill="#5BA9E6"></path>
</g>
<defs>
<filter id="filter0_d_746_1702" x="0.000391006" y="0.000391006" width="414.8" height="457.8" filterUnits="userSpaceOnUse" color-interpolation-filters="sRGB">
<feFlood flood-opacity="0" result="BackgroundImageFix"></feFlood>
<feColorMatrix in="SourceAlpha" type="matrix" values="0 0 0 0 0 0 0 0 0 0 0 0 0 0 0 0 0 0 127 0" result="hardAlpha"></feColorMatrix>
<feMorphology radius="6" operator="dilate" in="SourceAlpha" result="effect1_dropShadow_746_1702"></feMorphology>
<feOffset dx="1" dy="4"></feOffset>
<feGaussianBlur stdDeviation="8.95"></feGaussianBlur>
<feComposite in2="hardAlpha" operator="out"></feComposite>
<feColorMatrix type="matrix" values="0 0 0 0 0 0 0 0 0 0 0 0 0 0 0 0 0 0 0.17 0"></feColorMatrix>
<feBlend mode="normal" in2="BackgroundImageFix" result="effect1_dropShadow_746_1702"></feBlend>
<feBlend mode="normal" in="SourceGraphic" in2="effect1_dropShadow_746_1702" result="shape"></feBlend>
</filter>
<pattern id="pattern0_746_1702" patternContentUnits="objectBoundingBox" width="1" height="1">
<use xlink:href="#image0_746_1702" transform="matrix(0.00084755 0 0 0.000984252 0.0813101 0)"></use>
</pattern>
<image id="image0_746_1702" width="988" height="1016" preserveAspectRatio="none"></image>
</defs>
</svg>